<?xml version="1.0" encoding="utf-8"?>
<!-- Generator: Adobe Illustrator 16.0.0, SVG Export Plug-In . SVG Version: 6.00 Build 0)  -->
<!DOCTYPE svg PUBLIC "-//W3C//DTD SVG 1.1//EN" "http://www.w3.org/Graphics/SVG/1.1/DTD/svg11.dtd">
<svg version="1.1" id="Layer_1" xmlns="http://www.w3.org/2000/svg" xmlns:xlink="http://www.w3.org/1999/xlink" x="0px" y="0px"
	 width="128px" height="128px" viewBox="0 0 128 128" enable-background="new 0 0 128 128" xml:space="preserve">
<path fill-rule="evenodd" clip-rule="evenodd" fill="#2C7FB8" d="M71.123,3.92c-14.749,8.849-25.992,25.903-30.52,46.795
	c6.746,1.855,14.444,2.908,22.607,2.908c26.516,0,48.146-11.106,48.146-24.721c0-0.778-0.071-1.545-0.211-2.302
	c-4.198-5.589-9.396-10.392-15.318-14.139l1.331-1.985C115.047,21.608,127,41.453,127,64.001C127,98.699,98.703,127,64.002,127
	C29.301,127,1,98.699,1,64.001C1,29.3,29.301,1,64.002,1c8.425,0,16.468,1.67,23.829,4.697l-0.962,2.151
	C81.923,5.829,76.643,4.479,71.123,3.92L71.123,3.92z M120.918,47.046c-5.688,18.055-29.004,31.642-56.756,31.642
	c-9.21,0-17.93-1.266-25.681-3.66c0.539,15.084,4.385,29.119,10.581,40.867c0.958,0.283,1.926,0.545,2.903,0.779
	c-5.133-10.172-8.07-21.896-8.07-34.361c0-1.084,0.024-2.154,0.07-3.223c6.295,1.443,13.099,2.197,20.197,2.197
	c0.692,0,1.386-0.012,2.074-0.033c-0.026,1.289-0.026,2.588,0.003,3.891c0.264,11.695,2.699,22.764,6.804,32.584
	c27.932-3.795,49.584-27.848,49.584-56.792C122.626,56.149,122.033,51.495,120.918,47.046L120.918,47.046z M23.072,99.604
	c-4.458-9.633-6.975-20.553-6.975-32.102c0-1.717,0.055-3.417,0.163-5.102c-3.207-3.182-5.751-6.792-7.496-10.784
	C8.266,54.652,8,57.767,8,60.936C8,75.812,13.72,89.395,23.072,99.604L23.072,99.604z M15.58,32.51
	c0.835,2.908,2.664,5.655,5.3,8.146c5.44-14.622,15.185-26.769,27.444-34.453C34.397,10.546,22.724,20.071,15.58,32.51L15.58,32.51z
	 M59.779,26.944c5.58,0,10.131,4.549,10.131,10.134c0,5.582-4.552,10.131-10.131,10.131c-5.581,0-10.135-4.55-10.135-10.131
	C49.644,31.493,54.198,26.944,59.779,26.944L59.779,26.944z"/>
</svg>
